#tb 0: 1001/24000
0,          0,          0,        1,  1382400, 0x00000000
0,          1,          1,        1,  1382400, 0x00000000
0,          2,          2,        1,  1382400, 0x00000000
0,          3,          3,        1,  1382400, 0x00000000
0,          4,          4,        1,  1382400, 0x00000000
0,          5,          5,        1,  1382400, 0xf95bde46
0,          6,          6,        1,  1382400, 0x4f4c0393
0,          7,          7,        1,  1382400, 0xe5aa40db
0,          8,          8,        1,  1382400, 0xc25a8ba2
0,          9,          9,        1,  1382400, 0x9db3150d
0,         10,         10,        1,  1382400, 0x730e64b3
0,         11,         11,        1,  1382400, 0xf8fd7edf
0,         12,         12,        1,  1382400, 0x0114798a
0,         13,         13,        1,  1382400, 0x7571210f
0,         14,         14,        1,  1382400, 0x552ae59d
0,         15,         15,        1,  1382400, 0x7ae0c946
0,         16,         16,        1,  1382400, 0x0818c3ef
0,         17,         17,        1,  1382400, 0x8257cac4
0,         18,         18,        1,  1382400, 0x7762a979
0,         19,         19,        1,  1382400, 0x282af57a
0,         20,         20,        1,  1382400, 0x3f42de50
0,         21,         21,        1,  1382400, 0xc42d5f93
0,         22,         22,        1,  1382400, 0x18775c90
0,         23,         23,        1,  1382400, 0x34befa90
0,         24,         24,        1,  1382400, 0xd33d5f53
